<svg width="300" height="52" viewBox="0 0 300 52" fill="none" xmlns="http://www.w3.org/2000/svg">
<path d="M271.005 27.0879L261.972 31.7852V30.4473L269.482 26.5312L261.972 22.625V21.2871L271.005 25.9844V27.0879ZM285.077 27.0879L276.043 31.7852V30.4473L283.553 26.5312L276.043 22.625V21.2871L285.077 25.9844V27.0879Z" fill="#292929"/>
<path d="M274 50C260.745 50 250 39.2548 250 26H246C246 41.464 258.536 54 274 54V50ZM298 26C298 39.2548 287.255 50 274 50V54C289.464 54 302 41.464 302 26H298ZM274 2C287.255 2 298 12.7452 298 26H302C302 10.536 289.464 -2 274 -2V2ZM274 -2C258.536 -2 246 10.536 246 26H250C250 12.7452 260.745 2 274 2V-2Z" fill="#F1CDB3"/>
<path d="M216.041 27.0879L207.008 31.7852V30.4473L214.518 26.5312L207.008 22.625V21.2871L216.041 25.9844V27.0879Z" fill="#292929"/>
<path d="M212 50C198.745 50 188 39.2548 188 26H184C184 41.464 196.536 54 212 54V50ZM236 26C236 39.2548 225.255 50 212 50V54C227.464 54 240 41.464 240 26H236ZM212 2C225.255 2 236 12.7452 236 26H240C240 10.536 227.464 -2 212 -2V2ZM212 -2C196.536 -2 184 10.536 184 26H188C188 12.7452 198.745 2 212 2V-2Z" fill="#F1CDB3"/>
<path d="M124 26C124 11.6406 135.641 0 150 0C164.359 0 176 11.6406 176 26C176 40.3594 164.359 52 150 52C135.641 52 124 40.3594 124 26Z" fill="#F1CDB3"/>
<path d="M153.104 32H146.521V31.3066C146.717 31.2936 147.02 31.2676 147.43 31.2285C147.846 31.1829 148.133 31.1374 148.289 31.0918C148.491 31.0267 148.644 30.9225 148.748 30.7793C148.859 30.6296 148.914 30.4082 148.914 30.1152V23.2598H146.482V22.4395H147.02C147.723 22.4395 148.351 22.3092 148.904 22.0488C149.464 21.7884 149.865 21.5085 150.105 21.209H150.916C150.896 21.6322 150.877 22.127 150.857 22.6934C150.838 23.2598 150.828 23.7676 150.828 24.2168V30.0078C150.828 30.2357 150.877 30.4408 150.975 30.623C151.079 30.7988 151.225 30.929 151.414 31.0137C151.583 31.0853 151.86 31.1504 152.244 31.209C152.628 31.2676 152.915 31.3001 153.104 31.3066V32Z" fill="#292929"/>
<path d="M91.9824 31.7852L82.9492 27.0879V25.9844L91.9824 21.2871V22.625L84.4727 26.5312L91.9824 30.4473V31.7852Z" fill="#CDCDCD"/>
<path d="M88 50C74.7452 50 64 39.2548 64 26H60C60 41.464 72.536 54 88 54V50ZM112 26C112 39.2548 101.255 50 88 50V54C103.464 54 116 41.464 116 26H112ZM88 2C101.255 2 112 12.7452 112 26H116C116 10.536 103.464 -2 88 -2V2ZM88 -2C72.536 -2 60 10.536 60 26H64C64 12.7452 74.7452 2 88 2V-2Z" fill="#CDCDCD"/>
<path d="M22.9469 31.7852L13.9137 27.0879V25.9844L22.9469 21.2871V22.625L15.4371 26.5312L22.9469 30.4473V31.7852ZM37.018 31.7852L27.9848 27.0879V25.9844L37.018 21.2871V22.625L29.5082 26.5312L37.018 30.4473V31.7852Z" fill="#CDCDCD"/>
<path d="M26 50C12.7452 50 2 39.2548 2 26H-2C-2 41.464 10.536 54 26 54V50ZM50 26C50 39.2548 39.2548 50 26 50V54C41.464 54 54 41.464 54 26H50ZM26 2C39.2548 2 50 12.7452 50 26H54C54 10.536 41.464 -2 26 -2V2ZM26 -2C10.536 -2 -2 10.536 -2 26H2C2 12.7452 12.7452 2 26 2V-2Z" fill="#CDCDCD"/>
</svg>
